<?xml version="1.0" standalone="no"?>
<!DOCTYPE svg PUBLIC "-//W3C//DTD SVG 20010904//EN"
 "http://www.w3.org/TR/2001/REC-SVG-20010904/DTD/svg10.dtd">
<svg version="1.0" xmlns="http://www.w3.org/2000/svg"
 width="512.000000pt" height="512.000000pt" viewBox="0 0 512.000000 512.000000"
 preserveAspectRatio="xMidYMid meet">

<g transform="translate(0.000000,512.000000) scale(0.100000,-0.100000)"
fill="#000000" stroke="none">
<path d="M2315 5109 c-485 -50 -943 -235 -1334 -537 -111 -85 -348 -322 -433
-433 -158 -203 -309 -474 -394 -704 -47 -129 -107 -369 -129 -515 -76 -529 31
-1090 301 -1571 l55 -99 -191 -537 c-104 -295 -190 -550 -190 -565 0 -73 75
-148 147 -148 15 0 272 84 570 186 l542 185 98 -54 c712 -399 1576 -421 2318
-58 720 353 1239 1022 1394 1796 38 191 46 277 45 510 0 265 -14 383 -74 621
-48 190 -93 310 -185 499 -196 403 -500 749 -880 1004 -319 214 -661 345
-1055 406 -126 19 -477 28 -605 14z m450 -299 c785 -72 1480 -553 1825 -1264
106 -217 166 -409 206 -661 25 -154 25 -496 0 -650 -40 -252 -100 -444 -206
-661 -223 -458 -585 -820 -1045 -1045 -216 -105 -408 -165 -660 -205 -170 -28
-498 -25 -670 5 -291 51 -547 148 -804 303 -63 39 -94 51 -125 52 -28 0 -175
-46 -459 -143 -230 -79 -420 -142 -422 -139 -3 2 61 189 141 414 102 285 146
423 147 454 0 38 -9 61 -56 140 -304 506 -402 1047 -291 1600 99 488 374 953
754 1273 464 390 1069 582 1665 527z"/>
<path d="M1670 4171 c-63 -19 -113 -57 -211 -158 -80 -82 -113 -124 -138 -176
-109 -228 -119 -570 -26 -932 211 -825 856 -1460 1680 -1655 282 -66 540 -73
751 -20 137 35 214 80 329 194 135 132 160 179 160 296 -1 135 -6 142 -324
462 -316 318 -334 330 -466 330 -106 0 -159 -27 -283 -146 -56 -53 -113 -101
-127 -106 -38 -15 -100 -12 -142 5 -43 18 -507 475 -554 544 -23 35 -29 55
-29 98 0 73 17 102 120 208 108 112 132 155 138 255 3 60 0 87 -18 135 -21 56
-43 80 -309 346 -263 263 -291 288 -344 308 -59 21 -157 27 -207 12z m337
-533 c134 -134 243 -247 243 -253 0 -6 -34 -44 -76 -85 -135 -133 -184 -234
-184 -384 0 -104 25 -190 79 -272 55 -84 581 -602 647 -636 105 -56 243 -73
353 -43 93 24 160 66 261 162 l96 92 250 -250 249 -250 -85 -83 c-73 -72 -94
-86 -150 -104 -266 -88 -705 -19 -1075 167 -385 195 -672 477 -864 851 -113
221 -177 420 -207 640 -25 193 -12 384 36 495 20 47 152 195 174 195 6 0 120
-109 253 -242z"/>
</g>
</svg>
